<?xml version="1.0" encoding="UTF-8" standalone="no"?>
<svg
   xmlns:dc="http://purl.org/dc/elements/1.1/"
   xmlns:cc="http://creativecommons.org/ns#"
   xmlns:rdf="http://www.w3.org/1999/02/22-rdf-syntax-ns#"
   xmlns:svg="http://www.w3.org/2000/svg"
   xmlns="http://www.w3.org/2000/svg"
   xmlns:sodipodi="http://sodipodi.sourceforge.net/DTD/sodipodi-0.dtd"
   xmlns:inkscape="http://www.inkscape.org/namespaces/inkscape"
   height="48"
   width="48"
   version="1.1"
   id="svg4"
   sodipodi:docname="vpn.svg"
   inkscape:version="1.0.2 (e86c870879, 2021-01-15)">
  <metadata
     id="metadata10">
    <rdf:RDF>
      <cc:Work
         rdf:about="">
        <dc:format>image/svg+xml</dc:format>
        <dc:type
           rdf:resource="http://purl.org/dc/dcmitype/StillImage" />
      </cc:Work>
    </rdf:RDF>
  </metadata>
  <defs
     id="defs8" />
  <sodipodi:namedview
     pagecolor="#ffffff"
     bordercolor="#666666"
     borderopacity="1"
     objecttolerance="10"
     gridtolerance="10"
     guidetolerance="10"
     inkscape:pageopacity="0"
     inkscape:pageshadow="2"
     inkscape:window-width="943"
     inkscape:window-height="1028"
     id="namedview6"
     showgrid="false"
     inkscape:zoom="12.978356"
     inkscape:cx="23.74047"
     inkscape:cy="28.005788"
     inkscape:window-x="10"
     inkscape:window-y="40"
     inkscape:window-maximized="0"
     inkscape:current-layer="svg4" />
  <path
     d="M21.85 40.95V36.85Q20.1 36.85 18.9 35.55Q17.7 34.25 17.7 32.5V30.3L7.45 20.05Q7.2 21.05 7.1 22.025Q7 23 7 24Q7 30.5 11.225 35.35Q15.45 40.2 21.85 40.95ZM36.55 35.55Q38.75 33.15 39.875 30.175Q41 27.2 41 24Q41 18.7 38.1 14.375Q35.2 10.05 30.35 8.05V8.95Q30.35 10.7 29.15 12Q27.95 13.3 26.2 13.3H21.85V17.65Q21.85 18.5 21.175 19.05Q20.5 19.6 19.65 19.6H15.5V24H28.4Q29.25 24 29.8 24.65Q30.35 25.3 30.35 26.15V32.5H32.5Q33.95 32.5 35.05 33.35Q36.15 34.2 36.55 35.55ZM24 44Q19.85 44 16.2 42.425Q12.55 40.85 9.85 38.15Q7.15 35.45 5.575 31.8Q4 28.15 4 24Q4 19.85 5.575 16.2Q7.15 12.55 9.85 9.85Q12.55 7.15 16.2 5.575Q19.85 4 24 4Q28.15 4 31.8 5.575Q35.45 7.15 38.15 9.85Q40.85 12.55 42.425 16.2Q44 19.85 44 24Q44 28.15 42.425 31.8Q40.85 35.45 38.15 38.15Q35.45 40.85 31.8 42.425Q28.15 44 24 44Z"
     id="path2"
     style="fill:#f8f8f2;fill-opacity:1" />
</svg>
