<?xml version="1.0" encoding="UTF-8" standalone="no"?>
<svg
   xmlns:dc="http://purl.org/dc/elements/1.1/"
   xmlns:cc="http://creativecommons.org/ns#"
   xmlns:rdf="http://www.w3.org/1999/02/22-rdf-syntax-ns#"
   xmlns:svg="http://www.w3.org/2000/svg"
   xmlns="http://www.w3.org/2000/svg"
   xmlns:sodipodi="http://sodipodi.sourceforge.net/DTD/sodipodi-0.dtd"
   xmlns:inkscape="http://www.inkscape.org/namespaces/inkscape"
   id="Layer_1"
   style="enable-background:new 0 0 30 30;"
   version="1.1"
   viewBox="0 0 30 30"
   xml:space="preserve"
   sodipodi:docname="2639771_audio_icon.svg"
   inkscape:version="1.0.2 (e86c870879, 2021-01-15)"><metadata
     id="metadata17"><rdf:RDF><cc:Work
         rdf:about=""><dc:format>image/svg+xml</dc:format><dc:type
           rdf:resource="http://purl.org/dc/dcmitype/StillImage" /></cc:Work></rdf:RDF></metadata><defs
     id="defs15" /><sodipodi:namedview
     pagecolor="#ffffff"
     bordercolor="#666666"
     borderopacity="1"
     objecttolerance="10"
     gridtolerance="10"
     guidetolerance="10"
     inkscape:pageopacity="0"
     inkscape:pageshadow="2"
     inkscape:window-width="943"
     inkscape:window-height="1028"
     id="namedview13"
     showgrid="false"
     inkscape:zoom="29.366667"
     inkscape:cx="8.1725312"
     inkscape:cy="15"
     inkscape:window-x="10"
     inkscape:window-y="40"
     inkscape:window-maximized="0"
     inkscape:current-layer="Layer_1" /><path
     d="M8,19H3c-1.657,0-3-1.343-3-3v-2c0-1.657,1.343-3,3-3h5V19z"
     id="path2"
     style="fill:#f8f8f2;fill-opacity:1" /><polygon
     points="11,23 6.075,18.316 6.075,11.684 11,7 "
     id="polygon4"
     style="fill:#f8f8f2;fill-opacity:1" /><path
     d="  M25.323,26.242C27.621,23.172,29,19.377,29,15.256c0-4.35-1.526-8.346-4.06-11.498"
     style="fill:none;stroke:#f8f8f2;stroke-width:2;stroke-linecap:round;stroke-linejoin:round;stroke-miterlimit:10;"
     id="path6" /><path
     d="  M15.157,20.428C16.307,19.015,17,17.215,17,15.256c0-2.192-0.869-4.182-2.275-5.655"
     style="fill:none;stroke:#f8f8f2;stroke-width:2;stroke-linecap:round;stroke-linejoin:round;stroke-miterlimit:10;"
     id="path8" /><path
     d="  M20.408,23.343C22.034,21.056,23,18.269,23,15.256c0-3.242-1.118-6.222-2.975-8.598"
     style="fill:none;stroke:#f8f8f2;stroke-width:2;stroke-linecap:round;stroke-linejoin:round;stroke-miterlimit:10;"
     id="path10" /></svg>
