<?xml version="1.0" encoding="UTF-8" standalone="no"?>
<svg
   xmlns:dc="http://purl.org/dc/elements/1.1/"
   xmlns:cc="http://creativecommons.org/ns#"
   xmlns:rdf="http://www.w3.org/1999/02/22-rdf-syntax-ns#"
   xmlns:svg="http://www.w3.org/2000/svg"
   xmlns="http://www.w3.org/2000/svg"
   xmlns:sodipodi="http://sodipodi.sourceforge.net/DTD/sodipodi-0.dtd"
   xmlns:inkscape="http://www.inkscape.org/namespaces/inkscape"
   viewBox="0 0 24 24"
   version="1.1"
   id="svg10"
   sodipodi:docname="headphones_icon.svg"
   inkscape:version="1.0.2 (e86c870879, 2021-01-15)">
  <metadata
     id="metadata16">
    <rdf:RDF>
      <cc:Work
         rdf:about="">
        <dc:format>image/svg+xml</dc:format>
        <dc:type
           rdf:resource="http://purl.org/dc/dcmitype/StillImage" />
      </cc:Work>
    </rdf:RDF>
  </metadata>
  <defs
     id="defs14" />
  <sodipodi:namedview
     pagecolor="#ffffff"
     bordercolor="#666666"
     borderopacity="1"
     objecttolerance="10"
     gridtolerance="10"
     guidetolerance="10"
     inkscape:pageopacity="0"
     inkscape:pageshadow="2"
     inkscape:window-width="943"
     inkscape:window-height="1028"
     id="namedview12"
     showgrid="false"
     inkscape:zoom="12.978356"
     inkscape:cx="6.6340611"
     inkscape:cy="7.8752913"
     inkscape:window-x="10"
     inkscape:window-y="40"
     inkscape:window-maximized="0"
     inkscape:current-layer="svg10" />
  <title
     id="title2" />
  <path
     d="M8,14v4a3,3,0,0,1-3,3H3a1,1,0,0,1-1-1V15a2,2,0,0,1,2-2H7A1,1,0,0,1,8,14Z"
     fill="#464646"
     id="path4"
     style="fill:#f8f8f2;fill-opacity:1" />
  <path
     d="M22,15v5a1,1,0,0,1-1,1H19a3,3,0,0,1-3-3V14a1,1,0,0,1,1-1h3A2,2,0,0,1,22,15Z"
     fill="#464646"
     id="path6"
     style="fill:#f8f8f2;fill-opacity:1" />
  <path
     d="M20,11H18V9a5.25,5.25,0,0,0-5.46-5H11.46A5.25,5.25,0,0,0,6,9v2H4V9a7.25,7.25,0,0,1,7.46-7h1.08A7.25,7.25,0,0,1,20,9Z"
     fill="#464646"
     id="path8"
     style="fill:#f8f8f2;fill-opacity:1" />
</svg>
