<?xml version="1.0" encoding="UTF-8" standalone="no"?>
<svg
   xmlns:dc="http://purl.org/dc/elements/1.1/"
   xmlns:cc="http://creativecommons.org/ns#"
   xmlns:rdf="http://www.w3.org/1999/02/22-rdf-syntax-ns#"
   xmlns:svg="http://www.w3.org/2000/svg"
   xmlns="http://www.w3.org/2000/svg"
   xmlns:sodipodi="http://sodipodi.sourceforge.net/DTD/sodipodi-0.dtd"
   xmlns:inkscape="http://www.inkscape.org/namespaces/inkscape"
   height="24"
   width="24"
   version="1.1"
   id="svg4"
   sodipodi:docname="radio_button_fill.svg"
   inkscape:version="1.0.2 (e86c870879, 2021-01-15)">
  <metadata
     id="metadata10">
    <rdf:RDF>
      <cc:Work
         rdf:about="">
        <dc:format>image/svg+xml</dc:format>
        <dc:type
           rdf:resource="http://purl.org/dc/dcmitype/StillImage" />
      </cc:Work>
    </rdf:RDF>
  </metadata>
  <defs
     id="defs8" />
  <sodipodi:namedview
     pagecolor="#ffffff"
     bordercolor="#666666"
     borderopacity="1"
     objecttolerance="10"
     gridtolerance="10"
     guidetolerance="10"
     inkscape:pageopacity="0"
     inkscape:pageshadow="2"
     inkscape:window-width="943"
     inkscape:window-height="1028"
     id="namedview6"
     showgrid="false"
     inkscape:zoom="18.541667"
     inkscape:cx="9.1648248"
     inkscape:cy="8.2110041"
     inkscape:window-x="10"
     inkscape:window-y="40"
     inkscape:window-maximized="0"
     inkscape:current-layer="svg4"
     inkscape:document-rotation="0" />
  <path
     d="m 2.5762659,5.1525318 q -0.536722,0 -1.0053162,-0.2038113 Q 1.1020693,4.744623 0.75513219,4.3973997 0.40790879,4.0504626 0.20381129,3.5815822 0,3.112988 0,2.5762659 0,2.0395439 0.20381129,1.5706635 0.40790879,1.1020693 0.75513219,0.75484598 1.1020693,0.40790879 1.5709497,0.20381129 2.0395439,0 2.5762659,0 3.112988,0 3.5818683,0.20381129 4.0504626,0.40790879 4.3976859,0.75484598 4.744623,1.1020693 4.9487205,1.5706635 q 0.2038113,0.4688804 0.2038113,1.0056024 0,0.5367221 -0.2038113,1.0053163 Q 4.744623,4.0504626 4.3976859,4.3973997 4.0504626,4.744623 3.5818683,4.9487205 3.112988,5.1525318 2.5762659,5.1525318 Z m 0,-1.4312588 q 0.4794717,0 0.8123825,-0.3329109 0.3326246,-0.3326245 0.3326246,-0.8120962 0,-0.4794716 -0.3326246,-0.8123825 -0.3329108,-0.3326246 -0.8123825,-0.3326246 -0.4794716,0 -0.8120963,0.3326246 -0.3329108,0.3329109 -0.3329108,0.8123825 0,0.4794717 0.3329108,0.8120962 0.3326247,0.3329109 0.8120963,0.3329109 z"
     id="path2"
     style="fill:#bd93f9;fill-opacity:1;stroke-width:0.286252" />
  <ellipse
     style="fill:#bd93f9"
     id="path830"
     cx="2.524965"
     cy="2.6067898"
     rx="1.445377"
     ry="1.3727791" />
</svg>
