<?xml version="1.0" encoding="UTF-8" standalone="no"?>
<svg
   xmlns:dc="http://purl.org/dc/elements/1.1/"
   xmlns:cc="http://creativecommons.org/ns#"
   xmlns:rdf="http://www.w3.org/1999/02/22-rdf-syntax-ns#"
   xmlns:svg="http://www.w3.org/2000/svg"
   xmlns="http://www.w3.org/2000/svg"
   xmlns:sodipodi="http://sodipodi.sourceforge.net/DTD/sodipodi-0.dtd"
   xmlns:inkscape="http://www.inkscape.org/namespaces/inkscape"
   height="24"
   width="24"
   version="1.1"
   id="svg4"
   sodipodi:docname="mic_active.svg"
   inkscape:version="1.0.2 (e86c870879, 2021-01-15)">
  <metadata
     id="metadata10">
    <rdf:RDF>
      <cc:Work
         rdf:about="">
        <dc:format>image/svg+xml</dc:format>
        <dc:type
           rdf:resource="http://purl.org/dc/dcmitype/StillImage" />
      </cc:Work>
    </rdf:RDF>
  </metadata>
  <defs
     id="defs8" />
  <sodipodi:namedview
     pagecolor="#ffffff"
     bordercolor="#666666"
     borderopacity="1"
     objecttolerance="10"
     gridtolerance="10"
     guidetolerance="10"
     inkscape:pageopacity="0"
     inkscape:pageshadow="2"
     inkscape:window-width="1900"
     inkscape:window-height="1030"
     id="namedview6"
     showgrid="false"
     inkscape:zoom="18.354167"
     inkscape:cx="-0.58503002"
     inkscape:cy="12.905093"
     inkscape:window-x="10"
     inkscape:window-y="40"
     inkscape:window-maximized="0"
     inkscape:current-layer="svg4" />
  <path
     d="M12 14Q10.725 14 9.838 13.113Q8.95 12.225 8.95 10.95V4.9Q8.95 3.625 9.838 2.737Q10.725 1.85 12 1.85Q13.275 1.85 14.163 2.737Q15.05 3.625 15.05 4.9V10.95Q15.05 12.225 14.163 13.113Q13.275 14 12 14ZM10.9 21.6V18.4Q8.1 18.075 6.275 15.938Q4.45 13.8 4.45 10.95H6.6Q6.6 13.2 8.175 14.75Q9.75 16.3 12 16.3Q14.25 16.3 15.825 14.75Q17.4 13.2 17.4 10.95H19.55Q19.55 13.8 17.712 15.938Q15.875 18.075 13.05 18.4V21.6Z"
     id="path2"
     style="fill:#f8f8f2;fill-opacity:1" />
</svg>
