<?xml version="1.0" encoding="UTF-8" standalone="no"?>
<svg
   xmlns:dc="http://purl.org/dc/elements/1.1/"
   xmlns:cc="http://creativecommons.org/ns#"
   xmlns:rdf="http://www.w3.org/1999/02/22-rdf-syntax-ns#"
   xmlns:svg="http://www.w3.org/2000/svg"
   xmlns="http://www.w3.org/2000/svg"
   xmlns:sodipodi="http://sodipodi.sourceforge.net/DTD/sodipodi-0.dtd"
   xmlns:inkscape="http://www.inkscape.org/namespaces/inkscape"
   height="24"
   width="24"
   version="1.1"
   id="svg4"
   sodipodi:docname="mic_muted.svg"
   inkscape:version="1.0.2 (e86c870879, 2021-01-15)">
  <metadata
     id="metadata10">
    <rdf:RDF>
      <cc:Work
         rdf:about="">
        <dc:format>image/svg+xml</dc:format>
        <dc:type
           rdf:resource="http://purl.org/dc/dcmitype/StillImage" />
      </cc:Work>
    </rdf:RDF>
  </metadata>
  <defs
     id="defs8" />
  <sodipodi:namedview
     pagecolor="#ffffff"
     bordercolor="#666666"
     borderopacity="1"
     objecttolerance="10"
     gridtolerance="10"
     guidetolerance="10"
     inkscape:pageopacity="0"
     inkscape:pageshadow="2"
     inkscape:window-width="1900"
     inkscape:window-height="1030"
     id="namedview6"
     showgrid="false"
     inkscape:zoom="36.708333"
     inkscape:cx="12"
     inkscape:cy="12"
     inkscape:window-x="10"
     inkscape:window-y="40"
     inkscape:window-maximized="0"
     inkscape:current-layer="svg4" />
  <path
     d="M18.375 14.625 16.75 13.05Q16.875 12.675 16.975 12.162Q17.075 11.65 17.075 10.95H19.225Q19.225 12.025 19.038 12.975Q18.85 13.925 18.375 14.625ZM14.65 10.925 8.625 4.875V4.9Q8.625 3.625 9.512 2.737Q10.4 1.85 11.675 1.85Q12.95 1.85 13.838 2.737Q14.725 3.625 14.725 4.9V10.55Q14.725 10.725 14.713 10.8Q14.7 10.875 14.65 10.925ZM19.825 22 15.3 17.475Q14.7 17.9 14.025 18.112Q13.35 18.325 12.725 18.4V21.6H10.575V18.4Q7.95 18.075 6.037 16.225Q4.125 14.375 4.125 10.95H6.275Q6.275 13.45 7.725 14.875Q9.175 16.3 11.675 16.3Q12.225 16.3 12.725 16.137Q13.225 15.975 13.575 15.75L1.275 3.45L2.8 1.925L21.35 20.45Z"
     id="path2"
     style="fill:#f8f8f2;fill-opacity:1" />
</svg>
